# xmcd
#
# Track frame offsets: 
#        150
#        13256
#        25625
#        38922
#        52159
#        67513
#        78069
#        89923
#        106236
#        119423
#        137214
#        150627
#        160708
#        167237
#
# Disc length: 2350 seconds
#
# Revision: 0
# Processed by: cddbd v1.5.1PL0 Copyright (c) Steve Scherf et al.
# Submitted via: ExactAudioCopy v0.90b4
#
DISCID=ae092c0e
DTITLE=Paul Wookey - One Way Ticket
DYEAR=2000
DGENRE=Country
TTITLE0=The Last Coal Train
TTITLE1=If I Were Gary Cooper
TTITLE2=Roll Along
TTITLE3=If I Could Only Play The Blues
TTITLE4=The Great Divide
TTITLE5=Mr Tilt's In Town
TTITLE6=A Murda Of Crows
TTITLE7=Brigitte
TTITLE8=Wo Ai Ni
TTITLE9=Once In A Blue Moon
TTITLE10=Yellow Bird
TTITLE11=Get Me Outta Here
TTITLE12=The Folks On The Hill
TTITLE13=All For The Asking
EXTD=
EXTT0=
EXTT1=
EXTT2=
EXTT3=
EXTT4=
EXTT5=
EXTT6=
EXTT7=
EXTT8=
EXTT9=
EXTT10=
EXTT11=
EXTT12=
EXTT13=
PLAYORDER=
